<?xml version="1.0" standalone="no"?>
<!DOCTYPE svg PUBLIC "-//W3C//DTD SVG 20010904//EN"
 "http://www.w3.org/TR/2001/REC-SVG-20010904/DTD/svg10.dtd">
<svg version="1.0" xmlns="http://www.w3.org/2000/svg"
 width="1280.000000pt" height="1080.000000pt" viewBox="0 0 1280.000000 1080.000000"
 preserveAspectRatio="xMidYMid meet">
<metadata>
Created by potrace 1.16, written by Peter Selinger 2001-2019
</metadata>
<g transform="translate(0.000000,1080.000000) scale(0.100000,-0.100000)"
fill="#000000" stroke="none">
<path d="M6465 9434 c-577 -56 -1073 -196 -1550 -439 -194 -99 -290 -158 -461
-285 -158 -118 -155 -116 -224 -124 -65 -8 -215 -30 -390 -56 -69 -11 -177
-26 -240 -35 -63 -9 -171 -25 -240 -35 -69 -11 -177 -26 -240 -35 -63 -9 -171
-25 -240 -35 -69 -11 -177 -26 -240 -35 -63 -9 -171 -25 -240 -35 -69 -10
-172 -26 -230 -34 -272 -40 -393 -58 -490 -73 -58 -10 -117 -17 -132 -16 -28
2 -28 1 -28 -55 0 -31 -6 -163 -15 -292 -19 -298 -50 -825 -70 -1180 -9 -151
-24 -414 -35 -585 -11 -170 -23 -394 -26 -497 l-7 -188 44 0 c24 0 113 6 199
14 85 8 245 22 355 31 345 28 549 46 568 51 12 4 17 0 17 -15 0 -21 38 -180
91 -389 16 -62 27 -117 24 -121 -2 -5 -29 -21 -60 -35 -77 -38 -96 -69 -108
-179 -9 -86 5 -446 20 -483 3 -8 16 8 31 36 29 54 109 141 154 168 23 14 28
23 28 57 0 22 8 52 17 65 62 91 339 397 387 427 37 24 38 26 34 71 -3 32 -19
72 -51 127 -26 44 -47 88 -47 98 0 11 9 32 20 48 23 32 27 65 16 125 l-7 41
173 16 c95 9 259 23 363 32 105 8 296 24 425 35 129 11 270 23 312 26 l77 6 5
61 c3 34 8 103 11 152 2 50 11 171 19 270 15 180 28 356 46 600 20 280 41 558
55 735 8 102 16 205 17 228 2 51 21 75 194 252 l112 115 18 264 18 264 472 -6
c450 -6 475 -5 555 14 256 62 439 82 724 83 311 0 567 -29 780 -91 85 -24 108
-26 392 -33 167 -3 305 -8 307 -11 2 -2 -2 -42 -10 -89 -19 -120 -19 -127 15
-145 28 -14 29 -18 35 -97 3 -46 15 -614 27 -1263 12 -649 23 -1181 23 -1182
2 -3 884 -67 1291 -93 88 -6 207 -15 265 -20 58 -5 186 -14 285 -20 99 -5 213
-13 253 -16 l72 -7 0 -52 c0 -29 -7 -69 -16 -90 -18 -43 -13 -74 18 -115 29
-39 19 -78 -42 -175 -66 -104 -65 -123 3 -174 63 -47 90 -75 159 -167 29 -40
82 -105 117 -145 94 -108 105 -137 98 -278 -8 -170 -70 -465 -177 -843 -79
-275 -91 -330 -86 -372 10 -86 68 -141 140 -132 73 9 123 80 170 241 30 104
129 600 150 755 43 305 61 689 36 754 -5 14 -39 45 -80 71 -51 34 -70 53 -70
68 0 12 21 94 45 182 25 88 57 219 72 290 14 72 29 133 32 137 3 4 83 1 176
-7 160 -14 388 -31 553 -42 l72 -5 0 44 c0 24 -11 180 -25 348 -13 168 -36
456 -50 640 -42 558 -74 959 -100 1290 -14 173 -25 338 -25 365 0 96 6 92
-148 99 -76 4 -222 14 -327 21 -104 8 -269 19 -365 25 -180 10 -547 35 -1075
71 l-300 21 -80 77 c-448 428 -1119 748 -1814 865 -369 62 -723 80 -1026 50z
m2715 -1769 l0 -75 -42 0 c-43 0 -78 -21 -78 -48 0 -19 209 -604 219 -615 8
-8 31 46 131 318 28 77 62 168 76 203 41 107 31 142 -43 142 l-43 0 0 75 0 75
215 0 215 0 0 -75 c0 -73 -1 -75 -24 -75 -50 0 -81 -43 -136 -183 -105 -269
-211 -543 -271 -699 l-34 -88 -126 0 -126 0 -66 168 c-36 92 -95 241 -131 332
-35 91 -87 223 -115 294 -28 71 -59 138 -68 148 -9 10 -34 21 -55 24 l-38 7 0
73 0 74 270 0 270 0 0 -75z m1668 48 c46 -126 112 -316 112 -321 0 -4 -30 -18
-67 -31 -64 -22 -68 -22 -78 -6 -69 119 -117 167 -194 193 -20 7 -93 12 -172
12 l-139 0 0 -141 0 -141 75 4 c94 4 107 16 113 98 l4 60 69 0 69 0 0 -235 0
-235 -69 0 -69 0 -4 56 c-7 79 -26 95 -114 97 l-69 2 -3 -149 c-2 -101 1 -153
9 -162 16 -19 215 -19 287 0 108 29 187 97 239 206 15 30 28 57 29 58 1 2 34
-6 73 -18 l70 -22 -56 -157 c-30 -86 -63 -178 -72 -206 l-18 -50 -486 -3 -487
-2 0 75 0 75 44 0 c29 0 52 7 70 21 l26 20 0 354 c0 347 -4 399 -33 417 -7 4
-33 8 -59 8 l-48 0 0 75 0 75 469 0 469 0 10 -27z m-7131 -173 c43 -6 102 -20
131 -32 l53 -21 15 22 c12 16 25 21 64 21 52 0 56 -3 64 -42 2 -14 11 -50 20
-79 33 -109 66 -232 66 -243 0 -6 -21 -16 -47 -23 -27 -6 -55 -14 -64 -17 -11
-5 -28 13 -61 66 -83 130 -160 187 -264 196 -148 12 -262 -93 -290 -268 -30
-181 36 -363 159 -442 48 -30 58 -33 142 -35 80 -2 96 1 145 25 30 15 91 62
136 105 l81 77 39 -31 c21 -17 45 -34 53 -39 11 -6 1 -24 -45 -80 -109 -133
-225 -202 -379 -226 -341 -53 -625 190 -625 536 0 154 51 282 154 385 75 75
169 124 271 141 92 16 91 16 182 4z m-1089 -62 c11 -29 37 -96 57 -148 20 -52
53 -135 72 -185 191 -498 204 -525 258 -525 24 0 25 -2 25 -70 l0 -70 -245 0
-245 0 0 70 0 70 38 0 c67 0 78 36 41 135 l-21 55 -166 -2 -167 -3 -25 -73
c-31 -89 -24 -106 44 -110 l46 -3 0 -70 0 -69 -200 0 -200 0 0 70 c0 67 1 70
24 70 53 0 52 -1 229 450 25 63 66 169 92 235 25 66 56 144 67 173 l22 52 117
0 118 0 19 -52z"/>
<path d="M2425 7203 c-10 -26 -33 -88 -52 -137 -18 -48 -33 -92 -33 -97 0 -5
47 -9 105 -9 58 0 105 2 105 4 0 12 -94 272 -100 279 -4 5 -16 -13 -25 -40z"/>
<path d="M5571 7379 c-40 -115 -72 -212 -70 -213 7 -5 144 -56 152 -56 3 0 21
27 37 61 57 111 170 205 238 197 l27 -3 3 -404 c3 -465 7 -441 -85 -441 l-53
0 0 -85 0 -85 295 0 296 0 -3 83 -3 82 -57 5 c-31 3 -63 11 -70 18 -17 17 -25
762 -9 805 13 35 41 35 109 1 61 -30 107 -81 152 -167 18 -34 34 -64 36 -66 4
-5 153 49 158 58 2 3 -29 98 -68 211 l-72 205 -61 3 c-54 3 -61 1 -66 -18 -5
-20 -11 -20 -345 -20 -331 0 -340 0 -345 20 -4 17 -14 20 -64 20 l-58 0 -74
-211z"/>
<path d="M6790 7465 l0 -85 48 0 c27 0 57 -7 70 -16 l22 -15 0 -399 c0 -456 5
-430 -86 -430 l-54 0 0 -85 0 -85 295 0 296 0 -3 83 -3 82 -58 5 c-42 4 -63
11 -73 25 -11 15 -14 88 -14 396 0 258 4 386 11 403 13 27 35 36 97 36 l42 0
0 85 0 85 -295 0 -295 0 0 -85z"/>
<path d="M4418 5090 c-79 -24 -165 -110 -191 -191 -14 -41 -17 -93 -17 -262
l0 -211 28 26 c42 39 116 86 185 119 82 38 245 79 314 79 l55 0 -4 118 c-4
137 -21 183 -87 249 -70 69 -192 101 -283 73z"/>
<path d="M8903 5066 c-118 -37 -200 -134 -218 -258 l-7 -47 53 4 c116 9 359
14 359 7 0 -27 -34 -189 -42 -199 -6 -8 -33 -13 -63 -13 -54 0 -94 -21 -115
-59 -5 -10 -50 -263 -99 -564 l-90 -546 -1 -863 c-1 -586 2 -879 10 -911 64
-289 413 -348 548 -93 l27 51 3 808 c2 704 4 807 17 807 13 0 15 -67 15 -512
0 -512 7 -652 36 -739 31 -97 146 -173 259 -173 103 1 142 25 362 229 242 223
417 643 454 1087 11 140 2 314 -22 428 l-11 51 -61 -58 c-160 -153 -334 -223
-597 -243 -148 -11 -810 -33 -816 -27 -3 2 5 51 16 108 11 57 20 105 20 107 0
1 28 2 63 2 83 0 120 22 136 81 13 48 171 961 171 989 0 33 -33 50 -98 50 -72
0 -69 -7 -47 120 8 47 15 86 15 88 0 1 20 2 44 2 l44 0 -5 48 c-7 65 -47 145
-91 182 -75 62 -179 84 -269 56z"/>
<path d="M8436 4669 c-27 -50 -44 -100 -57 -167 -11 -54 -19 -98 -19 -99 0 -2
27 -3 60 -3 52 0 62 -3 76 -25 9 -15 14 -35 10 -52 -3 -15 -10 -54 -16 -85
l-11 -58 -95 0 -94 0 22 -45 22 -45 57 0 c32 0 61 -5 64 -10 3 -6 -1 -48 -10
-94 -15 -83 -15 -85 7 -130 12 -25 24 -46 28 -46 9 0 122 654 118 686 -4 39
-39 56 -105 51 -49 -3 -52 -2 -48 17 17 72 35 169 32 172 -2 2 -20 -28 -41
-67z"/>
<path d="M7338 4609 c-9 -50 -19 -93 -22 -96 -3 -3 -34 -8 -70 -12 -68 -7 -89
-19 -111 -61 -8 -15 -46 -198 -86 -406 -39 -208 -80 -408 -91 -444 -85 -278
-313 -446 -633 -467 -78 -5 -156 2 -255 22 -15 3 -9 -2 16 -15 70 -34 154 -50
257 -50 207 0 369 60 491 184 118 118 145 192 217 581 23 127 44 232 47 235 2
3 40 7 85 10 47 3 81 9 80 15 -1 6 6 19 15 29 13 15 13 17 2 11 -12 -7 -13 -6
-3 7 20 23 6 28 -79 28 -74 0 -78 1 -78 23 0 44 22 101 50 129 25 24 36 28 88
28 l59 0 16 93 c17 95 33 247 26 247 -2 0 -12 -41 -21 -91z"/>
<path d="M3775 4670 c-27 -11 -63 -32 -80 -47 l-30 -28 36 -3 35 -3 23 -255
c12 -141 20 -258 17 -261 -6 -6 -207 -45 -210 -41 -2 2 -19 32 -39 68 -68 123
-192 220 -317 249 -121 28 -256 4 -322 -57 -63 -60 -63 -161 0 -177 36 -9 93
-45 87 -54 -4 -7 44 -23 200 -68 18 -5 18 -5 2 20 -9 15 -17 35 -17 47 0 18 6
20 61 20 l60 0 -28 -49 c-15 -28 -25 -52 -23 -54 3 -2 55 -18 115 -36 147 -44
294 -116 378 -186 38 -31 67 -58 65 -61 -2 -2 -27 5 -55 16 l-52 19 21 -47
c30 -67 35 -176 13 -258 -46 -172 -225 -331 -425 -378 -36 -9 -102 -19 -148
-22 -58 -5 -80 -10 -72 -18 5 -5 10 -24 10 -40 0 -54 48 -263 86 -374 94 -277
236 -483 379 -548 41 -19 55 -31 60 -52 11 -51 64 -121 118 -157 134 -89 316
-56 397 72 60 94 60 93 60 716 l0 568 -55 51 c-127 116 -204 285 -213 468 -11
237 64 455 221 641 l59 70 -7 52 c-14 104 -74 171 -178 202 -70 21 -171 18
-232 -5z"/>
<path d="M6468 4579 c-9 -50 -19 -93 -22 -96 -2 -3 -33 -7 -68 -10 -74 -7
-112 -29 -127 -76 -21 -65 -151 -763 -151 -807 1 -59 16 -89 69 -136 36 -32
42 -34 31 -14 -22 42 -15 124 34 370 25 129 48 245 51 258 5 20 11 22 68 22
57 0 66 3 92 30 16 17 34 30 40 30 7 0 12 7 12 15 0 12 -17 15 -94 15 -102 0
-100 -1 -82 64 17 62 48 86 111 86 29 0 59 4 66 8 7 5 20 51 30 103 l18 94
-25 67 c-13 38 -27 68 -31 68 -3 0 -14 -41 -22 -91z"/>
<path d="M9607 4058 c-48 -277 -87 -515 -87 -530 l0 -28 100 0 c240 0 354 68
455 273 64 130 89 252 82 412 -5 125 -21 189 -63 256 -55 89 -130 119 -294
119 l-106 0 -87 -502z"/>
<path d="M7470 4471 c0 -21 -3 -53 -6 -70 l-6 -31 60 0 c50 0 63 -4 75 -21 20
-27 26 -14 34 65 8 87 0 96 -88 96 l-69 0 0 -39z"/>
<path d="M6695 4479 c-3 -8 3 -41 13 -74 l18 -60 60 -1 c34 -1 62 3 66 10 15
22 9 103 -8 117 -23 19 -142 25 -149 8z"/>
<path d="M5711 4433 c114 -151 157 -163 161 -48 2 52 -19 65 -105 65 -65 0
-69 -1 -56 -17z"/>
<path d="M4668 4402 c-26 -9 -67 -31 -91 -48 -210 -149 -324 -608 -215 -866
13 -32 27 -48 43 -52 13 -3 37 -11 52 -17 15 -7 39 -13 53 -15 14 -2 26 -8 28
-13 2 -5 10 -7 18 -4 8 3 14 0 14 -7 0 -6 4 -9 9 -6 5 3 21 -10 36 -30 27 -35
30 -36 76 -31 26 3 62 13 78 22 l31 16 0 368 0 368 38 -3 c20 -2 69 -5 107 -8
84 -7 102 -10 111 -19 4 -4 14 -7 21 -7 11 0 13 10 8 48 -12 89 0 82 -151 82
l-134 0 0 34 c0 33 3 35 53 52 28 10 78 18 109 18 32 1 58 3 58 6 0 20 -72 87
-114 106 -63 29 -167 32 -238 6z"/>
<path d="M5473 4188 c18 -54 21 -87 21 -223 1 -192 -10 -240 -89 -400 -67
-135 -149 -236 -256 -315 -160 -119 -306 -169 -514 -177 -148 -6 -245 12 -362
67 l-63 29 0 -773 c0 -869 -4 -827 76 -915 60 -67 126 -95 224 -95 126 0 197
49 255 176 l26 56 6 705 6 704 77 7 c343 28 634 277 726 621 29 107 27 316 -4
410 -20 61 -31 77 -86 128 l-64 57 21 -62z"/>
<path d="M7841 4169 c-22 -112 -24 -132 -14 -126 6 4 106 -179 236 -436 l226
-442 133 4 c117 3 138 6 178 28 l45 24 -137 -5 -138 -4 -146 286 c-81 158
-198 385 -259 506 l-113 219 -11 -54z"/>
<path d="M7391 4166 c-9 -10 -9 -16 -1 -21 8 -5 7 -12 -4 -24 -22 -25 -11 -31
55 -31 64 0 114 -14 104 -30 -3 -5 -2 -10 4 -10 11 0 13 6 30 88 l9 42 -93 0
c-67 0 -96 -4 -104 -14z"/>
<path d="M2571 3790 c10 -63 16 -123 13 -132 -6 -22 24 -90 64 -144 26 -35 36
-42 76 -46 36 -4 59 -17 113 -60 38 -30 91 -69 118 -87 54 -35 54 -35 -40 -15
-11 2 -5 -3 14 -12 79 -36 224 -42 312 -13 46 16 96 54 120 93 15 23 19 44 16
84 -4 58 -28 92 -87 122 -49 25 -173 61 -181 52 -9 -9 -39 -185 -39 -226 0
-62 -15 -61 -65 6 -59 78 -109 180 -126 252 -11 49 -15 55 -43 60 -64 12 -176
75 -230 128 l-52 53 17 -115z"/>
<path d="M7625 3189 c-99 -3 -233 -7 -297 -8 l-118 -1 0 -25 c0 -24 2 -25 73
-24 39 0 170 4 290 8 l218 8 27 26 c24 24 24 27 7 25 -11 -1 -101 -5 -200 -9z"/>
<path d="M2558 3107 c-44 -71 -45 -72 -94 -78 -27 -3 -42 -8 -34 -11 25 -10
240 -28 336 -28 86 0 91 1 102 24 12 26 7 36 -17 36 -22 0 -158 65 -196 94
-16 12 -35 25 -41 29 -7 4 -29 -22 -56 -66z"/>
<path d="M6060 2529 c-30 -50 -63 -95 -72 -100 -10 -5 -18 -17 -18 -25 0 -24
114 -16 118 9 2 11 -3 17 -13 17 -14 0 -15 3 -5 15 16 19 70 20 70 1 0 -7 -9
-16 -20 -19 -11 -3 -20 -12 -20 -21 0 -24 262 -23 310 2 67 33 92 135 45 186
-22 24 -30 26 -105 26 -72 0 -80 -2 -80 -19 0 -11 4 -21 9 -23 14 -5 -17 -131
-35 -145 -30 -22 -42 -3 -59 93 -17 91 -18 94 -44 94 -22 -1 -34 -14 -81 -91z"/>
<path d="M6630 2601 c0 -11 4 -21 10 -23 16 -5 -24 -143 -43 -146 -9 -2 -17
-12 -17 -23 0 -18 8 -19 108 -19 l108 0 22 39 c12 21 22 44 22 50 0 20 -36 12
-60 -14 -21 -23 -84 -44 -96 -32 -3 2 -2 16 2 31 7 28 44 38 44 11 0 -8 9 -15
19 -15 14 0 21 9 26 33 4 17 9 40 11 50 7 22 -18 23 -52 1 -29 -20 -35 -16
-27 14 8 32 67 31 88 -2 11 -16 22 -22 35 -19 23 6 24 9 9 52 l-11 31 -99 0
c-91 0 -99 -2 -99 -19z"/>
<path d="M6883 2604 c-3 -9 -1 -19 5 -23 19 -11 -16 -142 -39 -148 -10 -3 -19
-14 -19 -24 0 -16 8 -19 49 -19 36 0 50 4 55 17 4 9 2 19 -4 23 -9 5 -8 19 0
51 l12 44 27 -67 c23 -61 29 -68 53 -68 29 0 33 8 58 128 8 33 19 56 31 62 10
6 19 17 19 25 0 22 -98 21 -107 -1 -3 -9 0 -19 6 -24 9 -5 10 -16 3 -41 l-9
-34 -22 48 c-11 27 -21 53 -21 58 0 5 -20 9 -45 9 -33 0 -47 -5 -52 -16z"/>
<path d="M7272 2610 c-12 -5 -27 -21 -34 -35 -18 -40 2 -70 64 -93 53 -20 69
-44 34 -50 -25 -5 -64 17 -72 40 -3 11 -15 18 -30 18 -22 0 -24 -4 -24 -50 0
-43 3 -50 20 -50 11 0 20 5 20 10 0 7 6 7 19 0 59 -31 151 5 151 60 0 32 -18
49 -74 70 -23 9 -41 22 -41 30 0 25 31 22 63 -5 45 -38 62 -33 62 18 l0 43
-67 1 c-38 1 -78 -2 -91 -7z"/>
<path d="M5626 2594 c-9 -22 -8 -24 9 -24 18 0 18 -24 2 -94 -7 -27 -18 -51
-25 -54 -9 -3 -11 3 -7 21 5 18 2 26 -12 31 -9 4 -19 2 -21 -3 -8 -23 -38 -50
-63 -56 l-26 -7 15 76 c9 46 20 76 27 76 11 0 25 21 25 36 0 2 -27 4 -60 4
-53 0 -60 -2 -60 -20 0 -11 5 -20 11 -20 6 0 8 -8 5 -17 -2 -10 -10 -44 -16
-75 -8 -38 -16 -58 -26 -58 -8 0 -14 -5 -14 -11 0 -6 -5 -5 -13 3 -8 7 -22 55
-32 106 -17 88 -19 92 -44 92 -22 0 -33 -12 -76 -87 -27 -48 -60 -98 -72 -111
-13 -14 -23 -29 -23 -33 0 -5 27 -9 60 -9 53 0 60 2 60 20 0 11 -4 20 -10 20
-20 0 -9 28 13 34 35 9 47 7 47 -9 0 -8 -6 -15 -14 -15 -7 0 -16 -9 -19 -20
-5 -19 0 -20 143 -20 122 0 151 3 164 16 9 8 16 11 16 5 0 -7 24 -11 59 -11
44 0 60 4 65 16 9 22 8 24 -10 24 -13 0 -15 7 -10 38 14 77 27 112 41 112 8 0
15 9 15 20 0 18 -7 20 -59 20 -44 0 -60 -4 -65 -16z"/>
<path d="M5770 2591 c0 -11 5 -21 11 -23 10 -3 7 -23 -16 -125 -3 -13 -12 -23
-19 -23 -8 0 -16 -9 -19 -20 -5 -19 0 -20 61 -20 134 0 182 32 190 125 4 48 1
59 -18 80 -21 23 -31 25 -107 25 -75 0 -83 -2 -83 -19z"/>
<path d="M7519 2595 c-38 -21 -59 -59 -59 -107 0 -56 21 -85 70 -98 111 -30
214 75 166 168 -9 17 -25 36 -35 42 -28 14 -111 12 -142 -5z"/>
<path d="M7736 2593 c-4 -9 -1 -20 5 -24 19 -12 -18 -140 -42 -146 -11 -3 -19
-14 -19 -24 0 -16 8 -19 50 -19 37 0 52 4 57 16 3 9 1 19 -5 23 -9 5 -9 18 1
51 l12 43 24 -67 c21 -61 26 -66 52 -66 30 0 35 11 67 140 6 25 14 36 30 38
26 4 26 6 5 -74 -12 -43 -23 -66 -35 -70 -10 -3 -18 -14 -18 -25 0 -17 7 -19
59 -19 44 0 60 4 65 16 9 22 8 24 -9 24 -18 0 -19 -3 2 77 11 47 21 67 35 71
10 2 18 13 18 23 0 17 -8 19 -67 19 -38 0 -84 3 -104 6 -31 5 -37 3 -41 -14
-3 -12 -1 -23 5 -25 7 -2 7 -16 0 -42 l-9 -40 -24 63 -23 62 -42 0 c-31 0 -45
-5 -49 -17z"/>
<path d="M8114 2585 c-4 -9 -2 -20 5 -24 6 -4 10 -14 7 -22 -3 -8 -12 -40 -21
-71 -9 -35 -21 -58 -29 -58 -12 0 -26 -20 -26 -36 0 -2 42 -4 94 -4 86 0 97 2
125 25 56 48 66 148 17 181 -13 8 -56 18 -95 21 -61 5 -71 4 -77 -12z"/>
<path d="M5010 2579 c-64 -26 -100 -94 -80 -154 15 -46 44 -65 101 -65 67 0
149 59 105 76 -8 3 -27 -4 -42 -15 -50 -40 -94 -22 -94 37 0 43 15 71 46 82
30 12 51 4 59 -21 4 -10 15 -19 26 -19 17 0 20 6 17 42 l-3 43 -55 2 c-30 1
-66 -3 -80 -8z"/>
<path d="M8384 2547 c-29 -26 -37 -42 -41 -79 -5 -42 -3 -50 25 -78 26 -26 38
-30 82 -30 91 0 140 45 140 129 0 58 -42 91 -116 91 -47 0 -59 -4 -90 -33z"/>
<path d="M6515 2095 c-44 -69 -88 -128 -97 -131 -11 -3 -18 -15 -18 -30 0 -23
3 -24 70 -24 68 0 70 1 70 25 0 16 -6 25 -15 25 -18 0 -19 9 -1 33 9 12 27 17
60 17 40 0 46 -3 46 -21 0 -12 -8 -23 -20 -26 -11 -3 -20 -9 -20 -13 0 -5 -3
-15 -6 -24 -5 -14 5 -16 74 -16 76 0 81 1 84 23 2 12 -3 27 -10 32 -7 6 -23
66 -34 133 l-22 122 -40 0 -41 0 -80 -125z"/>
</g>
</svg>
